# xmcd
#
# Track frame offsets: 
#        180
#        22938
#        44100
#        62663
#        86399
#        107667
#        130760
#        154620
#
# Disc length: 2391 seconds
#
# Revision: 3
# Processed by: cddbd v1.5.2PL0 Copyright (c) Steve Scherf et al.
# Submitted via: ExactAudioCopy v1.0b3
#
DISCID=5c095508
DTITLE=Raulin Rosendo - Simplemente Contrólate!
DYEAR=1997
DGENRE=Salsa
TTITLE0=Culpable o No
TTITLE1=Deseo
TTITLE2=Frente A Una Copa De Vino
TTITLE3=Que Te Vaya Bien
TTITLE4=Mienteme
TTITLE5=A Partir De Manana
TTITLE6=Hasta Que Me Olvides
TTITLE7=Que Voy Hacer
EXTD=
EXTT0=
EXTT1=
EXTT2=
EXTT3=
EXTT4=
EXTT5=
EXTT6=
EXTT7=
PLAYORDER=
